<mxfile host="app.diagrams.net" modified="2020-12-10T12:01:36.502Z" agent="5.0 (Windows NT 10.0; Win64; x64) AppleWebKit/537.36 (KHTML, like Gecko) Chrome/87.0.4280.88 Safari/537.36" etag="WasWX5zxgQWijs63brCS" version="13.10.4" type="github">
  <diagram id="7hbArStOJNBST2I1m4vk" name="Page-1">
    <mxGraphModel dx="2249" dy="1874" grid="1" gridSize="10" guides="1" tooltips="1" connect="1" arrows="1" fold="1" page="1" pageScale="1" pageWidth="827" pageHeight="1169" math="0" shadow="0">
      <root>
        <mxCell id="0" />
        <mxCell id="1" parent="0" />
        <mxCell id="UlRWUHUItI-bkFL1ABmF-59" style="edgeStyle=orthogonalEdgeStyle;curved=0;rounded=1;sketch=0;orthogonalLoop=1;jettySize=auto;html=1;" edge="1" parent="1" source="UlRWUHUItI-bkFL1ABmF-8" target="UlRWUHUItI-bkFL1ABmF-58">
          <mxGeometry relative="1" as="geometry" />
        </mxCell>
        <mxCell id="UlRWUHUItI-bkFL1ABmF-8" value="Compras" style="shape=umlFrame;whiteSpace=wrap;html=1;width=60;height=15;" vertex="1" parent="1">
          <mxGeometry x="430" y="40" width="300" height="200" as="geometry" />
        </mxCell>
        <mxCell id="UlRWUHUItI-bkFL1ABmF-9" value="Colaborador Compras" style="shape=umlActor;verticalLabelPosition=bottom;verticalAlign=top;html=1;" vertex="1" parent="1">
          <mxGeometry x="565" y="100" width="30" height="60" as="geometry" />
        </mxCell>
        <mxCell id="UlRWUHUItI-bkFL1ABmF-55" style="edgeStyle=orthogonalEdgeStyle;curved=0;rounded=1;sketch=0;orthogonalLoop=1;jettySize=auto;html=1;" edge="1" parent="1" source="UlRWUHUItI-bkFL1ABmF-12" target="UlRWUHUItI-bkFL1ABmF-54">
          <mxGeometry relative="1" as="geometry" />
        </mxCell>
        <mxCell id="UlRWUHUItI-bkFL1ABmF-12" value="Projeto" style="shape=umlFrame;whiteSpace=wrap;html=1;" vertex="1" parent="1">
          <mxGeometry x="-530" y="40" width="300" height="200" as="geometry" />
        </mxCell>
        <mxCell id="UlRWUHUItI-bkFL1ABmF-13" value="Colaborador Projeto" style="shape=umlActor;verticalLabelPosition=bottom;verticalAlign=top;html=1;" vertex="1" parent="1">
          <mxGeometry x="-392.5" y="100" width="25" height="60" as="geometry" />
        </mxCell>
        <mxCell id="UlRWUHUItI-bkFL1ABmF-28" style="edgeStyle=orthogonalEdgeStyle;rounded=0;orthogonalLoop=1;jettySize=auto;html=1;exitX=1;exitY=0.5;exitDx=0;exitDy=0;" edge="1" parent="1">
          <mxGeometry relative="1" as="geometry">
            <mxPoint x="180" y="133" as="sourcePoint" />
            <mxPoint x="180" y="133" as="targetPoint" />
          </mxGeometry>
        </mxCell>
        <mxCell id="UlRWUHUItI-bkFL1ABmF-43" style="edgeStyle=orthogonalEdgeStyle;curved=0;rounded=1;sketch=0;orthogonalLoop=1;jettySize=auto;html=1;exitX=0.5;exitY=1;exitDx=0;exitDy=0;entryX=0.5;entryY=0;entryDx=0;entryDy=0;" edge="1" parent="1" source="UlRWUHUItI-bkFL1ABmF-31" target="UlRWUHUItI-bkFL1ABmF-36">
          <mxGeometry relative="1" as="geometry" />
        </mxCell>
        <mxCell id="UlRWUHUItI-bkFL1ABmF-66" style="edgeStyle=orthogonalEdgeStyle;curved=0;rounded=1;sketch=0;orthogonalLoop=1;jettySize=auto;html=1;exitX=1;exitY=0.5;exitDx=0;exitDy=0;entryX=0;entryY=0.5;entryDx=0;entryDy=0;" edge="1" parent="1" source="UlRWUHUItI-bkFL1ABmF-31" target="UlRWUHUItI-bkFL1ABmF-65">
          <mxGeometry relative="1" as="geometry" />
        </mxCell>
        <mxCell id="UlRWUHUItI-bkFL1ABmF-31" value="O Material existe no estoque ?&lt;br&gt;" style="rhombus;whiteSpace=wrap;html=1;" vertex="1" parent="1">
          <mxGeometry y="100" width="190" height="80" as="geometry" />
        </mxCell>
        <mxCell id="UlRWUHUItI-bkFL1ABmF-40" style="edgeStyle=orthogonalEdgeStyle;curved=0;rounded=1;sketch=0;orthogonalLoop=1;jettySize=auto;html=1;exitX=0.5;exitY=1;exitDx=0;exitDy=0;entryX=0.5;entryY=0;entryDx=0;entryDy=0;" edge="1" parent="1" source="UlRWUHUItI-bkFL1ABmF-36" target="UlRWUHUItI-bkFL1ABmF-38">
          <mxGeometry relative="1" as="geometry" />
        </mxCell>
        <mxCell id="UlRWUHUItI-bkFL1ABmF-36" value="Coletar material" style="whiteSpace=wrap;html=1;rounded=0;sketch=0;" vertex="1" parent="1">
          <mxGeometry x="35" y="240" width="120" height="60" as="geometry" />
        </mxCell>
        <mxCell id="UlRWUHUItI-bkFL1ABmF-37" value="" style="ellipse;html=1;shape=endState;rounded=0;sketch=0;fillColor=#000000;" vertex="1" parent="1">
          <mxGeometry x="80" y="470" width="30" height="30" as="geometry" />
        </mxCell>
        <mxCell id="UlRWUHUItI-bkFL1ABmF-41" style="edgeStyle=orthogonalEdgeStyle;curved=0;rounded=1;sketch=0;orthogonalLoop=1;jettySize=auto;html=1;entryX=0.5;entryY=0;entryDx=0;entryDy=0;" edge="1" parent="1" source="UlRWUHUItI-bkFL1ABmF-38" target="UlRWUHUItI-bkFL1ABmF-37">
          <mxGeometry relative="1" as="geometry" />
        </mxCell>
        <mxCell id="UlRWUHUItI-bkFL1ABmF-38" value="Fazer Projeto" style="whiteSpace=wrap;html=1;rounded=0;sketch=0;" vertex="1" parent="1">
          <mxGeometry x="35" y="350" width="120" height="60" as="geometry" />
        </mxCell>
        <mxCell id="UlRWUHUItI-bkFL1ABmF-44" value="SIM&lt;br&gt;" style="text;html=1;align=center;verticalAlign=middle;resizable=0;points=[];autosize=1;" vertex="1" parent="1">
          <mxGeometry x="100" y="180" width="40" height="20" as="geometry" />
        </mxCell>
        <mxCell id="UlRWUHUItI-bkFL1ABmF-45" value="NÃO" style="text;html=1;align=center;verticalAlign=middle;resizable=0;points=[];autosize=1;" vertex="1" parent="1">
          <mxGeometry x="180" y="110" width="40" height="20" as="geometry" />
        </mxCell>
        <mxCell id="UlRWUHUItI-bkFL1ABmF-56" style="edgeStyle=orthogonalEdgeStyle;curved=0;rounded=1;sketch=0;orthogonalLoop=1;jettySize=auto;html=1;exitX=1;exitY=0.5;exitDx=0;exitDy=0;" edge="1" parent="1" source="UlRWUHUItI-bkFL1ABmF-54" target="UlRWUHUItI-bkFL1ABmF-31">
          <mxGeometry relative="1" as="geometry" />
        </mxCell>
        <mxCell id="UlRWUHUItI-bkFL1ABmF-54" value="Verifica material no estoque" style="whiteSpace=wrap;html=1;rounded=0;sketch=0;fillColor=#ffffff;" vertex="1" parent="1">
          <mxGeometry x="-180" y="110" width="120" height="60" as="geometry" />
        </mxCell>
        <mxCell id="UlRWUHUItI-bkFL1ABmF-60" style="edgeStyle=orthogonalEdgeStyle;curved=0;rounded=1;sketch=0;orthogonalLoop=1;jettySize=auto;html=1;" edge="1" parent="1" source="UlRWUHUItI-bkFL1ABmF-58" target="UlRWUHUItI-bkFL1ABmF-61">
          <mxGeometry relative="1" as="geometry">
            <mxPoint x="-90" y="-40" as="targetPoint" />
          </mxGeometry>
        </mxCell>
        <mxCell id="UlRWUHUItI-bkFL1ABmF-58" value="Efetua a compra com o fornecedor" style="whiteSpace=wrap;html=1;rounded=0;sketch=0;fillColor=#ffffff;" vertex="1" parent="1">
          <mxGeometry x="520" y="-70" width="120" height="60" as="geometry" />
        </mxCell>
        <mxCell id="UlRWUHUItI-bkFL1ABmF-62" style="edgeStyle=orthogonalEdgeStyle;curved=0;rounded=1;sketch=0;orthogonalLoop=1;jettySize=auto;html=1;entryX=0.467;entryY=0.005;entryDx=0;entryDy=0;entryPerimeter=0;" edge="1" parent="1" source="UlRWUHUItI-bkFL1ABmF-61" target="UlRWUHUItI-bkFL1ABmF-12">
          <mxGeometry relative="1" as="geometry" />
        </mxCell>
        <mxCell id="UlRWUHUItI-bkFL1ABmF-61" value="Informa colaborador Projeto" style="whiteSpace=wrap;html=1;rounded=0;sketch=0;fillColor=#ffffff;" vertex="1" parent="1">
          <mxGeometry x="-450" y="-70" width="120" height="60" as="geometry" />
        </mxCell>
        <mxCell id="UlRWUHUItI-bkFL1ABmF-67" style="edgeStyle=orthogonalEdgeStyle;curved=0;rounded=1;sketch=0;orthogonalLoop=1;jettySize=auto;html=1;" edge="1" parent="1" source="UlRWUHUItI-bkFL1ABmF-65" target="UlRWUHUItI-bkFL1ABmF-8">
          <mxGeometry relative="1" as="geometry" />
        </mxCell>
        <mxCell id="UlRWUHUItI-bkFL1ABmF-65" value="Solicitar materiais para colaborador de compras" style="whiteSpace=wrap;html=1;rounded=0;sketch=0;fillColor=#ffffff;" vertex="1" parent="1">
          <mxGeometry x="260" y="110" width="120" height="60" as="geometry" />
        </mxCell>
        <mxCell id="UlRWUHUItI-bkFL1ABmF-70" value="FIM" style="text;html=1;align=center;verticalAlign=middle;resizable=0;points=[];autosize=1;" vertex="1" parent="1">
          <mxGeometry x="75" y="510" width="40" height="20" as="geometry" />
        </mxCell>
        <mxCell id="UlRWUHUItI-bkFL1ABmF-71" value="Cenário 1" style="shape=umlFrame;whiteSpace=wrap;html=1;rounded=0;sketch=0;fillColor=#ffffff;" vertex="1" parent="1">
          <mxGeometry x="-570" y="-90" width="1340" height="630" as="geometry" />
        </mxCell>
      </root>
    </mxGraphModel>
  </diagram>
</mxfile>
